<svg xmlns="http://www.w3.org/2000/svg" viewBox="0 0 120 80"><defs><style>.a{fill:#6db4b3;}</style></defs><title>Text</title><path class="a" d="M29.72,58.23,29.51,58V56.82l.21-.19a10.06,10.06,0,0,0,2.2-.18,1.88,1.88,0,0,0,.88-.61,19.33,19.33,0,0,0,1.56-3l2.46-5.34L43.2,33.08q1.8-4.24,3.59-8.48H48.3l10,23.53,1.34,3.14q.59,1.34,1.35,2.91A8.88,8.88,0,0,0,62.05,56a2,2,0,0,0,.73.43,7.8,7.8,0,0,0,1.93.18l.19.19V58l-.19.19Q62.23,58,60.23,58l-7.78.21L52.27,58V56.82l.19-.19a18.86,18.86,0,0,0,3.28-.22.78.78,0,0,0,.66-.81,4,4,0,0,0-.33-1.36l-2.88-7.15H39.61l-2.55,6a7.07,7.07,0,0,0-.68,2.37.92.92,0,0,0,.63.87,10.71,10.71,0,0,0,3.19.3l.21.19V58l-.19.19q-3-.19-5.3-.19Q32.34,58,29.72,58.23ZM40.41,45.08H52.27L46.38,30.95Z"/><path class="a" d="M71,42.15l-.91-.23-.19-.23V38.77A13.7,13.7,0,0,1,78,35.68a9,9,0,0,1,4.48,1,6.31,6.31,0,0,1,2.58,2.52,7.46,7.46,0,0,1,.8,3.53l-.12,4.71v7a4.26,4.26,0,0,0,.2,1.73,1,1,0,0,0,.46.41,4,4,0,0,0,1,.18l1.34.12.19.21V58l-.19.19q-1.71-.14-3.19-.14t-3.37.14l-.35-.33.09-3.77-5.11,4a7.22,7.22,0,0,1-2.81.54,7.08,7.08,0,0,1-3.22-.68A4.86,4.86,0,0,1,68.66,56a5.74,5.74,0,0,1-.71-3,6.85,6.85,0,0,1,2.16-5.38q2.16-1.93,11.77-3.29,0-3.47-1.55-4.89a5.9,5.9,0,0,0-4.15-1.42,7.3,7.3,0,0,0-2.47.4,3.19,3.19,0,0,0-1.28.64q-.16.25-1.27,2.87Zm10.88,3.7Q75.3,47,73.69,48.22a4.66,4.66,0,0,0-1.62,3.91q0,3.66,3.63,3.66,3.12,0,6.16-3.61Z"/></svg>