<svg xmlns="http://www.w3.org/2000/svg" viewBox="0 0 120 80"><defs><style>.a{fill:#6db4b3;}</style></defs><title>component.commonAttribute Index</title><path class="a" d="M44.5,50H39.9l-1.83-4.77H29.71L28,50H23.5l8.13-21h4.5Zm-7.78-8.31L33.84,33.9,31,41.69Z"/><path class="a" d="M52,29h8.59a25.38,25.38,0,0,1,3.8.21,5.66,5.66,0,0,1,2.24.87,5.44,5.44,0,0,1,1.65,1.75,4.67,4.67,0,0,1,.66,2.46A4.81,4.81,0,0,1,68.13,37a5,5,0,0,1-2.21,1.85,5.67,5.67,0,0,1,3,1.91A5,5,0,0,1,70,43.91a6.13,6.13,0,0,1-.68,2.79,5.65,5.65,0,0,1-1.86,2.16,6.24,6.24,0,0,1-2.91,1q-1.08.11-5.23.14H52Zm4.34,3.5v4.86h2.84q2.54,0,3.15-.07a2.9,2.9,0,0,0,1.75-.75,2.19,2.19,0,0,0,.64-1.64,2.27,2.27,0,0,0-.55-1.58,2.51,2.51,0,0,0-1.63-.74q-.64-.07-3.71-.07Zm0,8.35v5.62h4a20.08,20.08,0,0,0,3-.13,2.71,2.71,0,0,0,1.58-.84,2.54,2.54,0,0,0,.61-1.78,2.69,2.69,0,0,0-.47-1.6,2.65,2.65,0,0,0-1.36-1,15.07,15.07,0,0,0-3.85-.3Z"/><path class="a" d="M92.73,42.19,97,43.45a8.86,8.86,0,0,1-3.27,4.94A10.86,10.86,0,0,1,80.8,47.24,10.14,10.14,0,0,1,78,39.68q0-5.07,2.81-7.87A10,10,0,0,1,88.21,29a9.47,9.47,0,0,1,6.5,2.2,7.89,7.89,0,0,1,2.23,3.74l-4.36,1A4.27,4.27,0,0,0,91,33.42a4.85,4.85,0,0,0-3-.91A5.13,5.13,0,0,0,84,34.13q-1.51,1.62-1.51,5.25,0,3.85,1.49,5.49a5,5,0,0,0,3.87,1.63,4.61,4.61,0,0,0,3-1A5.92,5.92,0,0,0,92.73,42.19Z"/></svg>