<svg xmlns="http://www.w3.org/2000/svg" viewBox="0 0 120 80"><defs><style>.a{fill:#c6c6c6;}.b{fill:#6db4b3;}</style></defs><title>component.commonSearch Term Specific Content</title><rect class="a" x="24" y="16" width="70" height="8"/><path d="M90.69,28a.38.38,0,0,1,0,.54L89.06,30.2a.38.38,0,0,1-.54,0L84,25.7a7.16,7.16,0,0,1-3.92,1.17,7.26,7.26,0,1,1,7.26-7.26,7.15,7.15,0,0,1-1.17,3.92ZM80.1,24.56a5,5,0,1,0-5-5A5,5,0,0,0,80.1,24.56Z"/><rect class="b" x="25" y="40" width="53" height="3"/><rect class="b" x="25" y="48" width="53" height="3"/><rect class="b" x="25" y="56" width="43" height="3"/></svg>