<svg xmlns="http://www.w3.org/2000/svg" viewBox="0 0 120 80"><defs><style>.a{fill:#c6c6c6;}.b{fill:#6db4b3;}</style></defs><title>Cart PDF_Print</title><path class="a" d="M92.58,15.61h-8.5A1.43,1.43,0,0,0,82.67,17v8.61a1.43,1.43,0,0,1-1.42,1.43H38.66a1.36,1.36,0,0,1-1.33-1.43V17a1.51,1.51,0,0,0-1.51-1.43H27.42A1.43,1.43,0,0,0,26,17V48.52A1.51,1.51,0,0,0,27.42,50h8.16a2,2,0,0,0,1.76-1.43V40a1.94,1.94,0,0,1,1.76-1.41H80.91A1.92,1.92,0,0,1,82.67,40v8.65A2,2,0,0,0,84.43,50h8.16A1.51,1.51,0,0,0,94,48.52V17A1.43,1.43,0,0,0,92.58,15.61ZM40.17,41.43V73H79.83V41.43ZM79.83,22.78a1.43,1.43,0,0,1-1.42,1.43H41.58a1.43,1.43,0,0,1-1.42-1.43V8.43A1.43,1.43,0,0,1,41.58,7H78.42a1.43,1.43,0,0,1,1.42,1.43Z"/><path class="b" d="M69.15,47a.83.83,0,1,1,0,1.67h-.92l-3.42,16a1.14,1.14,0,0,1-1,.65h-.53v.83a.85.85,0,0,1-1.7,0v-.83h-5.1v.83a.85.85,0,0,1-1.7,0v-.83H54a.84.84,0,0,1-.85-.83.83.83,0,0,1,.85-.83h9.09l.82-3.33H53.11a1.49,1.49,0,0,1-1.39-1.07L50,51.35a.81.81,0,0,1,.17-.7.84.84,0,0,1,.66-.32H66.08l.65-2.7a.87.87,0,0,1,.83-.63Z"/></svg>